# xmcd
#
# Track frame offsets:
# 200
# 12310
# 25750
# 38467
# 49935
# 65952
# 82787
# 93750
# 106592
# 116472
# 127420
# 141135
#
# Disc length: 1988 seconds
#
# Revision: 1
# Processed by: cddbd v1.5PL3 Copyright (c) Steve Scherf et al.
# Submitted via: inCDius 2.0b9
#
DISCID=9407c20c
DTITLE=Boys From Indiana - Touchin' Home
DYEAR=1900
DGENRE=
TTITLE0=Wildwood Valley\t \r
TTITLE1=Call This Country Boy Home\t \r
TTITLE2=So My Tears Won't Show\t \r
TTITLE3=What Happened To The Cowboy\t \r
TTITLE4=You Don't Have To Love Me
TTITLE5=Singin' A Blue Song\t \r
TTITLE6=Jellico Mountain\t \r
TTITLE7=Big Silver Moon Over Dallas\t 
TTITLE8=Party On The Bayou\t \r
TTITLE9=Forgiveness Just Ain't In Her Plan\t \r11.\tWill Heaven Be Like Kentuc
TTITLE9=ky\t \r12.\tCajun Fiddle
TTITLE10=Will Heaven Be Like Kentucky\t \r
TTITLE11=Cajun Fiddle
EXTD=
EXTT0=
EXTT1=
EXTT2=
EXTT3=
EXTT4=
EXTT5=
EXTT6=
EXTT7=
EXTT8=
EXTT9=
EXTT10=
EXTT11=
PLAYORDER=
